<mxfile host="app.diagrams.net" modified="2024-07-05T04:50:04.790Z" agent="Mozilla/5.0 (Windows NT 10.0; Win64; x64) AppleWebKit/537.36 (KHTML, like Gecko) Chrome/126.0.0.0 Safari/537.36" etag="TN9oI4q9o5SP2c_axfKR" version="24.6.4" type="github">
  <diagram name="หน้า-1" id="5BQnmzxmp4HID7S2OKWE">
    <mxGraphModel dx="1909" dy="1027" grid="1" gridSize="10" guides="1" tooltips="1" connect="1" arrows="1" fold="1" page="1" pageScale="1" pageWidth="827" pageHeight="1169" math="0" shadow="0">
      <root>
        <mxCell id="0" />
        <mxCell id="1" parent="0" />
        <mxCell id="sd8wvMYhDi7HjZ1PcNP_-2" value="" style="edgeStyle=orthogonalEdgeStyle;rounded=0;orthogonalLoop=1;jettySize=auto;html=1;" edge="1" parent="1" source="sd8wvMYhDi7HjZ1PcNP_-3" target="sd8wvMYhDi7HjZ1PcNP_-5">
          <mxGeometry relative="1" as="geometry" />
        </mxCell>
        <mxCell id="sd8wvMYhDi7HjZ1PcNP_-3" value="START" style="rounded=1;whiteSpace=wrap;html=1;fontSize=12;glass=0;strokeWidth=1;shadow=0;" vertex="1" parent="1">
          <mxGeometry x="690" y="10" width="120" height="40" as="geometry" />
        </mxCell>
        <mxCell id="sd8wvMYhDi7HjZ1PcNP_-4" value="" style="edgeStyle=orthogonalEdgeStyle;rounded=0;orthogonalLoop=1;jettySize=auto;html=1;entryX=0.5;entryY=0;entryDx=0;entryDy=0;" edge="1" parent="1" source="sd8wvMYhDi7HjZ1PcNP_-5" target="sd8wvMYhDi7HjZ1PcNP_-9">
          <mxGeometry relative="1" as="geometry">
            <mxPoint x="920.0999999999999" y="163.5000000000001" as="targetPoint" />
          </mxGeometry>
        </mxCell>
        <mxCell id="sd8wvMYhDi7HjZ1PcNP_-5" value="กำหนดให้ ราคาน้ำในตู้&lt;br&gt;water = 45" style="rounded=0;whiteSpace=wrap;html=1;" vertex="1" parent="1">
          <mxGeometry x="690" y="85" width="120" height="60" as="geometry" />
        </mxCell>
        <mxCell id="sd8wvMYhDi7HjZ1PcNP_-6" style="edgeStyle=orthogonalEdgeStyle;rounded=0;orthogonalLoop=1;jettySize=auto;html=1;entryX=0.5;entryY=0;entryDx=0;entryDy=0;" edge="1" parent="1" source="sd8wvMYhDi7HjZ1PcNP_-7" target="sd8wvMYhDi7HjZ1PcNP_-12">
          <mxGeometry relative="1" as="geometry">
            <mxPoint x="400" y="110" as="targetPoint" />
          </mxGeometry>
        </mxCell>
        <mxCell id="sd8wvMYhDi7HjZ1PcNP_-7" value="money in box" style="ellipse;whiteSpace=wrap;html=1;" vertex="1" parent="1">
          <mxGeometry x="340" width="120" height="80" as="geometry" />
        </mxCell>
        <mxCell id="sd8wvMYhDi7HjZ1PcNP_-8" style="edgeStyle=orthogonalEdgeStyle;rounded=0;orthogonalLoop=1;jettySize=auto;html=1;entryX=0.5;entryY=0;entryDx=0;entryDy=0;" edge="1" parent="1" source="sd8wvMYhDi7HjZ1PcNP_-9" target="sd8wvMYhDi7HjZ1PcNP_-37">
          <mxGeometry relative="1" as="geometry" />
        </mxCell>
        <mxCell id="sd8wvMYhDi7HjZ1PcNP_-9" value="money in box" style="shape=process;whiteSpace=wrap;html=1;backgroundOutline=1;" vertex="1" parent="1">
          <mxGeometry x="690" y="175" width="120" height="60" as="geometry" />
        </mxCell>
        <mxCell id="sd8wvMYhDi7HjZ1PcNP_-10" value="" style="edgeStyle=orthogonalEdgeStyle;rounded=0;orthogonalLoop=1;jettySize=auto;html=1;" edge="1" parent="1" target="sd8wvMYhDi7HjZ1PcNP_-12">
          <mxGeometry relative="1" as="geometry">
            <mxPoint x="400" y="195" as="sourcePoint" />
          </mxGeometry>
        </mxCell>
        <mxCell id="sd8wvMYhDi7HjZ1PcNP_-11" style="edgeStyle=orthogonalEdgeStyle;rounded=0;orthogonalLoop=1;jettySize=auto;html=1;entryX=0.5;entryY=0;entryDx=0;entryDy=0;" edge="1" parent="1" source="sd8wvMYhDi7HjZ1PcNP_-12" target="sd8wvMYhDi7HjZ1PcNP_-14">
          <mxGeometry relative="1" as="geometry" />
        </mxCell>
        <mxCell id="sd8wvMYhDi7HjZ1PcNP_-12" value="กำหนดให้เงินในตู้มี&lt;br&gt;&lt;div&gt;haroi = 0 roi = 5 hasip = 20 yesip = 10&amp;nbsp;&lt;/div&gt;&lt;div&gt;sip = 1,000 ha = 100&lt;/div&gt;&lt;div&gt;&lt;br&gt;&lt;/div&gt;" style="rounded=0;whiteSpace=wrap;html=1;" vertex="1" parent="1">
          <mxGeometry x="310" y="142" width="180" height="75" as="geometry" />
        </mxCell>
        <mxCell id="sd8wvMYhDi7HjZ1PcNP_-13" style="edgeStyle=orthogonalEdgeStyle;rounded=0;orthogonalLoop=1;jettySize=auto;html=1;entryX=0.5;entryY=0;entryDx=0;entryDy=0;" edge="1" parent="1" source="sd8wvMYhDi7HjZ1PcNP_-14" target="sd8wvMYhDi7HjZ1PcNP_-39">
          <mxGeometry relative="1" as="geometry" />
        </mxCell>
        <mxCell id="sd8wvMYhDi7HjZ1PcNP_-14" value="นำเงินที่จ่ายเข้า&amp;nbsp;- 45 = thon" style="rounded=0;whiteSpace=wrap;html=1;" vertex="1" parent="1">
          <mxGeometry x="320" y="251" width="160" height="80" as="geometry" />
        </mxCell>
        <mxCell id="sd8wvMYhDi7HjZ1PcNP_-15" style="edgeStyle=orthogonalEdgeStyle;rounded=0;orthogonalLoop=1;jettySize=auto;html=1;entryX=0.5;entryY=0;entryDx=0;entryDy=0;" edge="1" parent="1" source="sd8wvMYhDi7HjZ1PcNP_-33" target="sd8wvMYhDi7HjZ1PcNP_-21">
          <mxGeometry relative="1" as="geometry" />
        </mxCell>
        <mxCell id="sd8wvMYhDi7HjZ1PcNP_-16" style="edgeStyle=orthogonalEdgeStyle;rounded=0;orthogonalLoop=1;jettySize=auto;html=1;exitX=0;exitY=0.5;exitDx=0;exitDy=0;" edge="1" parent="1" source="sd8wvMYhDi7HjZ1PcNP_-17">
          <mxGeometry relative="1" as="geometry">
            <mxPoint x="400" y="340" as="targetPoint" />
            <Array as="points">
              <mxPoint x="240" y="498" />
              <mxPoint x="240" y="340" />
            </Array>
          </mxGeometry>
        </mxCell>
        <mxCell id="sd8wvMYhDi7HjZ1PcNP_-17" value="ถ้าเงินที่จ่ายเข้า &amp;lt; 45" style="rhombus;whiteSpace=wrap;html=1;" vertex="1" parent="1">
          <mxGeometry x="340" y="436" width="120" height="125" as="geometry" />
        </mxCell>
        <mxCell id="sd8wvMYhDi7HjZ1PcNP_-18" value="N" style="text;html=1;align=center;verticalAlign=middle;whiteSpace=wrap;rounded=0;" vertex="1" parent="1">
          <mxGeometry x="340" y="545" width="60" height="30" as="geometry" />
        </mxCell>
        <mxCell id="sd8wvMYhDi7HjZ1PcNP_-19" style="edgeStyle=orthogonalEdgeStyle;rounded=0;orthogonalLoop=1;jettySize=auto;html=1;entryX=0;entryY=0.5;entryDx=0;entryDy=0;" edge="1" parent="1" source="sd8wvMYhDi7HjZ1PcNP_-21" target="sd8wvMYhDi7HjZ1PcNP_-25">
          <mxGeometry relative="1" as="geometry" />
        </mxCell>
        <mxCell id="sd8wvMYhDi7HjZ1PcNP_-20" style="edgeStyle=orthogonalEdgeStyle;rounded=0;orthogonalLoop=1;jettySize=auto;html=1;" edge="1" parent="1" source="sd8wvMYhDi7HjZ1PcNP_-21" target="sd8wvMYhDi7HjZ1PcNP_-51">
          <mxGeometry relative="1" as="geometry" />
        </mxCell>
        <mxCell id="sd8wvMYhDi7HjZ1PcNP_-21" value="thon &amp;gt;=500" style="rhombus;whiteSpace=wrap;html=1;" vertex="1" parent="1">
          <mxGeometry x="340" y="657" width="120" height="120" as="geometry" />
        </mxCell>
        <mxCell id="sd8wvMYhDi7HjZ1PcNP_-22" value="Y" style="text;html=1;align=center;verticalAlign=middle;whiteSpace=wrap;rounded=0;" vertex="1" parent="1">
          <mxGeometry x="310" y="460" width="60" height="30" as="geometry" />
        </mxCell>
        <mxCell id="sd8wvMYhDi7HjZ1PcNP_-23" value="N" style="text;html=1;align=center;verticalAlign=middle;whiteSpace=wrap;rounded=0;" vertex="1" parent="1">
          <mxGeometry x="410" y="760" width="20" height="30" as="geometry" />
        </mxCell>
        <mxCell id="sd8wvMYhDi7HjZ1PcNP_-24" style="edgeStyle=orthogonalEdgeStyle;rounded=0;orthogonalLoop=1;jettySize=auto;html=1;entryX=0;entryY=0.5;entryDx=0;entryDy=0;" edge="1" parent="1" source="sd8wvMYhDi7HjZ1PcNP_-25" target="sd8wvMYhDi7HjZ1PcNP_-28">
          <mxGeometry relative="1" as="geometry" />
        </mxCell>
        <mxCell id="sd8wvMYhDi7HjZ1PcNP_-25" value="haroi &amp;gt; 0" style="rhombus;whiteSpace=wrap;html=1;" vertex="1" parent="1">
          <mxGeometry x="500" y="657" width="120" height="120" as="geometry" />
        </mxCell>
        <mxCell id="sd8wvMYhDi7HjZ1PcNP_-26" value="Y" style="text;html=1;align=center;verticalAlign=middle;whiteSpace=wrap;rounded=0;" vertex="1" parent="1">
          <mxGeometry x="610" y="685" width="60" height="30" as="geometry" />
        </mxCell>
        <mxCell id="sd8wvMYhDi7HjZ1PcNP_-27" style="edgeStyle=orthogonalEdgeStyle;rounded=0;orthogonalLoop=1;jettySize=auto;html=1;entryX=0;entryY=0.5;entryDx=0;entryDy=0;" edge="1" parent="1" source="sd8wvMYhDi7HjZ1PcNP_-28" target="sd8wvMYhDi7HjZ1PcNP_-30">
          <mxGeometry relative="1" as="geometry" />
        </mxCell>
        <mxCell id="sd8wvMYhDi7HjZ1PcNP_-28" value="thon-500=thon" style="rounded=0;whiteSpace=wrap;html=1;" vertex="1" parent="1">
          <mxGeometry x="650" y="687" width="120" height="60" as="geometry" />
        </mxCell>
        <mxCell id="sd8wvMYhDi7HjZ1PcNP_-29" style="edgeStyle=orthogonalEdgeStyle;rounded=0;orthogonalLoop=1;jettySize=auto;html=1;entryX=0;entryY=0.5;entryDx=0;entryDy=0;" edge="1" parent="1" source="sd8wvMYhDi7HjZ1PcNP_-30">
          <mxGeometry relative="1" as="geometry">
            <mxPoint x="950" y="717" as="targetPoint" />
          </mxGeometry>
        </mxCell>
        <mxCell id="sd8wvMYhDi7HjZ1PcNP_-30" value="haroi-1" style="rounded=0;whiteSpace=wrap;html=1;" vertex="1" parent="1">
          <mxGeometry x="799" y="687" width="120" height="60" as="geometry" />
        </mxCell>
        <mxCell id="sd8wvMYhDi7HjZ1PcNP_-31" value="ทอนเงิน 500" style="shape=parallelogram;perimeter=parallelogramPerimeter;whiteSpace=wrap;html=1;fixedSize=1;" vertex="1" parent="1">
          <mxGeometry x="940" y="687" width="120" height="60" as="geometry" />
        </mxCell>
        <mxCell id="sd8wvMYhDi7HjZ1PcNP_-32" value="" style="edgeStyle=orthogonalEdgeStyle;rounded=0;orthogonalLoop=1;jettySize=auto;html=1;entryDx=0;entryDy=0;" edge="1" parent="1" target="sd8wvMYhDi7HjZ1PcNP_-33">
          <mxGeometry relative="1" as="geometry">
            <mxPoint x="400" y="562" as="sourcePoint" />
            <mxPoint x="400" y="657" as="targetPoint" />
            <Array as="points">
              <mxPoint x="400" y="615" />
              <mxPoint x="400" y="615" />
            </Array>
          </mxGeometry>
        </mxCell>
        <mxCell id="sd8wvMYhDi7HjZ1PcNP_-33" value="" style="shape=waypoint;sketch=0;fillStyle=solid;size=6;pointerEvents=1;points=[];fillColor=none;resizable=0;rotatable=0;perimeter=centerPerimeter;snapToPoint=1;" vertex="1" parent="1">
          <mxGeometry x="390" y="629.5" width="20" height="20" as="geometry" />
        </mxCell>
        <mxCell id="sd8wvMYhDi7HjZ1PcNP_-34" style="edgeStyle=orthogonalEdgeStyle;rounded=0;orthogonalLoop=1;jettySize=auto;html=1;entryX=0.71;entryY=0.782;entryDx=0;entryDy=0;entryPerimeter=0;" edge="1" parent="1" source="sd8wvMYhDi7HjZ1PcNP_-31" target="sd8wvMYhDi7HjZ1PcNP_-33">
          <mxGeometry relative="1" as="geometry">
            <Array as="points">
              <mxPoint x="1000" y="640" />
            </Array>
          </mxGeometry>
        </mxCell>
        <mxCell id="sd8wvMYhDi7HjZ1PcNP_-35" value="STOP" style="rounded=1;whiteSpace=wrap;html=1;fontSize=12;glass=0;strokeWidth=1;shadow=0;" vertex="1" parent="1">
          <mxGeometry x="690" y="348" width="120" height="40" as="geometry" />
        </mxCell>
        <mxCell id="sd8wvMYhDi7HjZ1PcNP_-36" style="edgeStyle=orthogonalEdgeStyle;rounded=0;orthogonalLoop=1;jettySize=auto;html=1;entryX=0.5;entryY=0;entryDx=0;entryDy=0;" edge="1" parent="1" source="sd8wvMYhDi7HjZ1PcNP_-37" target="sd8wvMYhDi7HjZ1PcNP_-35">
          <mxGeometry relative="1" as="geometry" />
        </mxCell>
        <mxCell id="sd8wvMYhDi7HjZ1PcNP_-37" value="ส่งของให้ลูกค้า" style="rounded=0;whiteSpace=wrap;html=1;" vertex="1" parent="1">
          <mxGeometry x="690" y="268" width="120" height="60" as="geometry" />
        </mxCell>
        <mxCell id="sd8wvMYhDi7HjZ1PcNP_-38" style="edgeStyle=orthogonalEdgeStyle;rounded=0;orthogonalLoop=1;jettySize=auto;html=1;entryX=0.5;entryY=0;entryDx=0;entryDy=0;" edge="1" parent="1" source="sd8wvMYhDi7HjZ1PcNP_-39" target="sd8wvMYhDi7HjZ1PcNP_-17">
          <mxGeometry relative="1" as="geometry" />
        </mxCell>
        <mxCell id="sd8wvMYhDi7HjZ1PcNP_-39" value="รับค่า เงินที่จ่ายเข้า&amp;nbsp;" style="shape=parallelogram;perimeter=parallelogramPerimeter;whiteSpace=wrap;html=1;fixedSize=1;" vertex="1" parent="1">
          <mxGeometry x="340" y="359" width="120" height="60" as="geometry" />
        </mxCell>
        <mxCell id="sd8wvMYhDi7HjZ1PcNP_-40" style="edgeStyle=orthogonalEdgeStyle;rounded=0;orthogonalLoop=1;jettySize=auto;html=1;entryX=0;entryY=0.5;entryDx=0;entryDy=0;" edge="1" parent="1" source="sd8wvMYhDi7HjZ1PcNP_-42" target="sd8wvMYhDi7HjZ1PcNP_-44">
          <mxGeometry relative="1" as="geometry" />
        </mxCell>
        <mxCell id="sd8wvMYhDi7HjZ1PcNP_-41" style="edgeStyle=orthogonalEdgeStyle;rounded=0;orthogonalLoop=1;jettySize=auto;html=1;" edge="1" parent="1" source="sd8wvMYhDi7HjZ1PcNP_-42" target="sd8wvMYhDi7HjZ1PcNP_-67">
          <mxGeometry relative="1" as="geometry" />
        </mxCell>
        <mxCell id="sd8wvMYhDi7HjZ1PcNP_-42" value="thon &amp;gt;=100" style="rhombus;whiteSpace=wrap;html=1;" vertex="1" parent="1">
          <mxGeometry x="340" y="834" width="120" height="120" as="geometry" />
        </mxCell>
        <mxCell id="sd8wvMYhDi7HjZ1PcNP_-43" style="edgeStyle=orthogonalEdgeStyle;rounded=0;orthogonalLoop=1;jettySize=auto;html=1;entryX=0;entryY=0.5;entryDx=0;entryDy=0;" edge="1" parent="1" source="sd8wvMYhDi7HjZ1PcNP_-44" target="sd8wvMYhDi7HjZ1PcNP_-46">
          <mxGeometry relative="1" as="geometry" />
        </mxCell>
        <mxCell id="sd8wvMYhDi7HjZ1PcNP_-44" value="thon &amp;gt; 0" style="rhombus;whiteSpace=wrap;html=1;" vertex="1" parent="1">
          <mxGeometry x="500" y="835" width="120" height="120" as="geometry" />
        </mxCell>
        <mxCell id="sd8wvMYhDi7HjZ1PcNP_-45" style="edgeStyle=orthogonalEdgeStyle;rounded=0;orthogonalLoop=1;jettySize=auto;html=1;entryX=0;entryY=0.5;entryDx=0;entryDy=0;" edge="1" parent="1" source="sd8wvMYhDi7HjZ1PcNP_-46" target="sd8wvMYhDi7HjZ1PcNP_-48">
          <mxGeometry relative="1" as="geometry" />
        </mxCell>
        <mxCell id="sd8wvMYhDi7HjZ1PcNP_-46" value="thon=thon-100" style="rounded=0;whiteSpace=wrap;html=1;" vertex="1" parent="1">
          <mxGeometry x="650" y="865" width="120" height="60" as="geometry" />
        </mxCell>
        <mxCell id="sd8wvMYhDi7HjZ1PcNP_-47" style="edgeStyle=orthogonalEdgeStyle;rounded=0;orthogonalLoop=1;jettySize=auto;html=1;entryX=0;entryY=0.5;entryDx=0;entryDy=0;" edge="1" parent="1" source="sd8wvMYhDi7HjZ1PcNP_-48" target="sd8wvMYhDi7HjZ1PcNP_-49">
          <mxGeometry relative="1" as="geometry" />
        </mxCell>
        <mxCell id="sd8wvMYhDi7HjZ1PcNP_-48" value="roi-1" style="rounded=0;whiteSpace=wrap;html=1;" vertex="1" parent="1">
          <mxGeometry x="799" y="865" width="120" height="60" as="geometry" />
        </mxCell>
        <mxCell id="sd8wvMYhDi7HjZ1PcNP_-49" value="ทอนเงิน 100" style="shape=parallelogram;perimeter=parallelogramPerimeter;whiteSpace=wrap;html=1;fixedSize=1;" vertex="1" parent="1">
          <mxGeometry x="940" y="865" width="120" height="60" as="geometry" />
        </mxCell>
        <mxCell id="sd8wvMYhDi7HjZ1PcNP_-50" style="edgeStyle=orthogonalEdgeStyle;rounded=0;orthogonalLoop=1;jettySize=auto;html=1;entryX=0.5;entryY=0;entryDx=0;entryDy=0;" edge="1" parent="1" source="sd8wvMYhDi7HjZ1PcNP_-51" target="sd8wvMYhDi7HjZ1PcNP_-42">
          <mxGeometry relative="1" as="geometry" />
        </mxCell>
        <mxCell id="sd8wvMYhDi7HjZ1PcNP_-51" value="" style="shape=waypoint;sketch=0;fillStyle=solid;size=6;pointerEvents=1;points=[];fillColor=none;resizable=0;rotatable=0;perimeter=centerPerimeter;snapToPoint=1;" vertex="1" parent="1">
          <mxGeometry x="390" y="790" width="20" height="20" as="geometry" />
        </mxCell>
        <mxCell id="sd8wvMYhDi7HjZ1PcNP_-52" style="edgeStyle=orthogonalEdgeStyle;rounded=0;orthogonalLoop=1;jettySize=auto;html=1;entryX=0.303;entryY=0.729;entryDx=0;entryDy=0;entryPerimeter=0;" edge="1" parent="1" source="sd8wvMYhDi7HjZ1PcNP_-49" target="sd8wvMYhDi7HjZ1PcNP_-51">
          <mxGeometry relative="1" as="geometry">
            <Array as="points">
              <mxPoint x="1000" y="800" />
            </Array>
          </mxGeometry>
        </mxCell>
        <mxCell id="sd8wvMYhDi7HjZ1PcNP_-53" value="Y" style="text;html=1;align=center;verticalAlign=middle;whiteSpace=wrap;rounded=0;" vertex="1" parent="1">
          <mxGeometry x="470" y="685" width="60" height="30" as="geometry" />
        </mxCell>
        <mxCell id="sd8wvMYhDi7HjZ1PcNP_-54" value="Y" style="text;html=1;align=center;verticalAlign=middle;whiteSpace=wrap;rounded=0;" vertex="1" parent="1">
          <mxGeometry x="470" y="850" width="60" height="30" as="geometry" />
        </mxCell>
        <mxCell id="sd8wvMYhDi7HjZ1PcNP_-55" value="Y" style="text;html=1;align=center;verticalAlign=middle;whiteSpace=wrap;rounded=0;" vertex="1" parent="1">
          <mxGeometry x="590" y="850" width="60" height="30" as="geometry" />
        </mxCell>
        <mxCell id="sd8wvMYhDi7HjZ1PcNP_-56" style="edgeStyle=orthogonalEdgeStyle;rounded=0;orthogonalLoop=1;jettySize=auto;html=1;entryX=0;entryY=0.5;entryDx=0;entryDy=0;" edge="1" parent="1" source="sd8wvMYhDi7HjZ1PcNP_-58" target="sd8wvMYhDi7HjZ1PcNP_-60">
          <mxGeometry relative="1" as="geometry" />
        </mxCell>
        <mxCell id="sd8wvMYhDi7HjZ1PcNP_-57" style="edgeStyle=orthogonalEdgeStyle;rounded=0;orthogonalLoop=1;jettySize=auto;html=1;entryX=0.5;entryY=0;entryDx=0;entryDy=0;" edge="1" parent="1" source="sd8wvMYhDi7HjZ1PcNP_-58" target="sd8wvMYhDi7HjZ1PcNP_-71">
          <mxGeometry relative="1" as="geometry" />
        </mxCell>
        <mxCell id="sd8wvMYhDi7HjZ1PcNP_-58" value="thon &amp;gt;=50" style="rhombus;whiteSpace=wrap;html=1;" vertex="1" parent="1">
          <mxGeometry x="340" y="1009" width="120" height="120" as="geometry" />
        </mxCell>
        <mxCell id="sd8wvMYhDi7HjZ1PcNP_-59" style="edgeStyle=orthogonalEdgeStyle;rounded=0;orthogonalLoop=1;jettySize=auto;html=1;entryX=0;entryY=0.5;entryDx=0;entryDy=0;" edge="1" parent="1" source="sd8wvMYhDi7HjZ1PcNP_-60" target="sd8wvMYhDi7HjZ1PcNP_-62">
          <mxGeometry relative="1" as="geometry" />
        </mxCell>
        <mxCell id="sd8wvMYhDi7HjZ1PcNP_-60" value="thon &amp;gt; 0" style="rhombus;whiteSpace=wrap;html=1;" vertex="1" parent="1">
          <mxGeometry x="500" y="1009" width="120" height="120" as="geometry" />
        </mxCell>
        <mxCell id="sd8wvMYhDi7HjZ1PcNP_-61" style="edgeStyle=orthogonalEdgeStyle;rounded=0;orthogonalLoop=1;jettySize=auto;html=1;entryX=0;entryY=0.5;entryDx=0;entryDy=0;" edge="1" parent="1" source="sd8wvMYhDi7HjZ1PcNP_-62" target="sd8wvMYhDi7HjZ1PcNP_-64">
          <mxGeometry relative="1" as="geometry" />
        </mxCell>
        <mxCell id="sd8wvMYhDi7HjZ1PcNP_-62" value="thon=thon-50" style="rounded=0;whiteSpace=wrap;html=1;" vertex="1" parent="1">
          <mxGeometry x="650" y="1039" width="120" height="60" as="geometry" />
        </mxCell>
        <mxCell id="sd8wvMYhDi7HjZ1PcNP_-63" style="edgeStyle=orthogonalEdgeStyle;rounded=0;orthogonalLoop=1;jettySize=auto;html=1;entryX=0;entryY=0.5;entryDx=0;entryDy=0;" edge="1" parent="1" source="sd8wvMYhDi7HjZ1PcNP_-64" target="sd8wvMYhDi7HjZ1PcNP_-65">
          <mxGeometry relative="1" as="geometry" />
        </mxCell>
        <mxCell id="sd8wvMYhDi7HjZ1PcNP_-64" value="hasip&lt;span style=&quot;background-color: initial;&quot;&gt;-1&lt;/span&gt;" style="rounded=0;whiteSpace=wrap;html=1;" vertex="1" parent="1">
          <mxGeometry x="799" y="1039" width="120" height="60" as="geometry" />
        </mxCell>
        <mxCell id="sd8wvMYhDi7HjZ1PcNP_-65" value="ทอนเงิน 50" style="shape=parallelogram;perimeter=parallelogramPerimeter;whiteSpace=wrap;html=1;fixedSize=1;" vertex="1" parent="1">
          <mxGeometry x="940" y="1039" width="120" height="60" as="geometry" />
        </mxCell>
        <mxCell id="sd8wvMYhDi7HjZ1PcNP_-66" value="" style="edgeStyle=orthogonalEdgeStyle;rounded=0;orthogonalLoop=1;jettySize=auto;html=1;" edge="1" parent="1" source="sd8wvMYhDi7HjZ1PcNP_-67" target="sd8wvMYhDi7HjZ1PcNP_-58">
          <mxGeometry relative="1" as="geometry" />
        </mxCell>
        <mxCell id="sd8wvMYhDi7HjZ1PcNP_-67" value="" style="shape=waypoint;sketch=0;fillStyle=solid;size=6;pointerEvents=1;points=[];fillColor=none;resizable=0;rotatable=0;perimeter=centerPerimeter;snapToPoint=1;" vertex="1" parent="1">
          <mxGeometry x="390" y="964" width="20" height="20" as="geometry" />
        </mxCell>
        <mxCell id="sd8wvMYhDi7HjZ1PcNP_-68" style="edgeStyle=orthogonalEdgeStyle;rounded=0;orthogonalLoop=1;jettySize=auto;html=1;entryX=0.774;entryY=0.641;entryDx=0;entryDy=0;entryPerimeter=0;" edge="1" parent="1" source="sd8wvMYhDi7HjZ1PcNP_-65" target="sd8wvMYhDi7HjZ1PcNP_-67">
          <mxGeometry relative="1" as="geometry">
            <Array as="points">
              <mxPoint x="1000" y="974" />
            </Array>
          </mxGeometry>
        </mxCell>
        <mxCell id="sd8wvMYhDi7HjZ1PcNP_-69" style="edgeStyle=orthogonalEdgeStyle;rounded=0;orthogonalLoop=1;jettySize=auto;html=1;entryX=0;entryY=0.5;entryDx=0;entryDy=0;" edge="1" parent="1" source="sd8wvMYhDi7HjZ1PcNP_-71" target="sd8wvMYhDi7HjZ1PcNP_-73">
          <mxGeometry relative="1" as="geometry" />
        </mxCell>
        <mxCell id="sd8wvMYhDi7HjZ1PcNP_-70" style="edgeStyle=orthogonalEdgeStyle;rounded=0;orthogonalLoop=1;jettySize=auto;html=1;entryX=0.5;entryY=0;entryDx=0;entryDy=0;" edge="1" parent="1" source="sd8wvMYhDi7HjZ1PcNP_-71" target="sd8wvMYhDi7HjZ1PcNP_-82">
          <mxGeometry relative="1" as="geometry" />
        </mxCell>
        <mxCell id="sd8wvMYhDi7HjZ1PcNP_-71" value="thon &amp;gt;=20" style="rhombus;whiteSpace=wrap;html=1;" vertex="1" parent="1">
          <mxGeometry x="340" y="1160" width="120" height="120" as="geometry" />
        </mxCell>
        <mxCell id="sd8wvMYhDi7HjZ1PcNP_-72" style="edgeStyle=orthogonalEdgeStyle;rounded=0;orthogonalLoop=1;jettySize=auto;html=1;entryX=0;entryY=0.5;entryDx=0;entryDy=0;" edge="1" parent="1" source="sd8wvMYhDi7HjZ1PcNP_-73" target="sd8wvMYhDi7HjZ1PcNP_-75">
          <mxGeometry relative="1" as="geometry" />
        </mxCell>
        <mxCell id="sd8wvMYhDi7HjZ1PcNP_-73" value="thon &amp;gt; 0" style="rhombus;whiteSpace=wrap;html=1;" vertex="1" parent="1">
          <mxGeometry x="500" y="1160" width="120" height="120" as="geometry" />
        </mxCell>
        <mxCell id="sd8wvMYhDi7HjZ1PcNP_-74" style="edgeStyle=orthogonalEdgeStyle;rounded=0;orthogonalLoop=1;jettySize=auto;html=1;entryX=0;entryY=0.5;entryDx=0;entryDy=0;" edge="1" parent="1" source="sd8wvMYhDi7HjZ1PcNP_-75" target="sd8wvMYhDi7HjZ1PcNP_-77">
          <mxGeometry relative="1" as="geometry" />
        </mxCell>
        <mxCell id="sd8wvMYhDi7HjZ1PcNP_-75" value="thon=thon-20" style="rounded=0;whiteSpace=wrap;html=1;" vertex="1" parent="1">
          <mxGeometry x="650" y="1190" width="120" height="60" as="geometry" />
        </mxCell>
        <mxCell id="sd8wvMYhDi7HjZ1PcNP_-76" style="edgeStyle=orthogonalEdgeStyle;rounded=0;orthogonalLoop=1;jettySize=auto;html=1;" edge="1" parent="1" source="sd8wvMYhDi7HjZ1PcNP_-77" target="sd8wvMYhDi7HjZ1PcNP_-79">
          <mxGeometry relative="1" as="geometry" />
        </mxCell>
        <mxCell id="sd8wvMYhDi7HjZ1PcNP_-77" value="yesip&lt;span style=&quot;background-color: initial;&quot;&gt;-1&lt;/span&gt;" style="rounded=0;whiteSpace=wrap;html=1;" vertex="1" parent="1">
          <mxGeometry x="799" y="1190" width="120" height="60" as="geometry" />
        </mxCell>
        <mxCell id="sd8wvMYhDi7HjZ1PcNP_-78" style="edgeStyle=orthogonalEdgeStyle;rounded=0;orthogonalLoop=1;jettySize=auto;html=1;" edge="1" parent="1" source="sd8wvMYhDi7HjZ1PcNP_-79">
          <mxGeometry relative="1" as="geometry">
            <mxPoint x="400" y="1140" as="targetPoint" />
            <Array as="points">
              <mxPoint x="1000" y="1140" />
            </Array>
          </mxGeometry>
        </mxCell>
        <mxCell id="sd8wvMYhDi7HjZ1PcNP_-79" value="ทอนเงิน 20" style="shape=parallelogram;perimeter=parallelogramPerimeter;whiteSpace=wrap;html=1;fixedSize=1;" vertex="1" parent="1">
          <mxGeometry x="940" y="1190" width="120" height="60" as="geometry" />
        </mxCell>
        <mxCell id="sd8wvMYhDi7HjZ1PcNP_-80" style="edgeStyle=orthogonalEdgeStyle;rounded=0;orthogonalLoop=1;jettySize=auto;html=1;entryX=0;entryY=0.5;entryDx=0;entryDy=0;" edge="1" parent="1" source="sd8wvMYhDi7HjZ1PcNP_-82" target="sd8wvMYhDi7HjZ1PcNP_-84">
          <mxGeometry relative="1" as="geometry" />
        </mxCell>
        <mxCell id="sd8wvMYhDi7HjZ1PcNP_-81" style="edgeStyle=orthogonalEdgeStyle;rounded=0;orthogonalLoop=1;jettySize=auto;html=1;entryX=0.5;entryY=0;entryDx=0;entryDy=0;" edge="1" parent="1" source="sd8wvMYhDi7HjZ1PcNP_-82" target="sd8wvMYhDi7HjZ1PcNP_-93">
          <mxGeometry relative="1" as="geometry" />
        </mxCell>
        <mxCell id="sd8wvMYhDi7HjZ1PcNP_-82" value="thon &amp;gt;=10" style="rhombus;whiteSpace=wrap;html=1;" vertex="1" parent="1">
          <mxGeometry x="340" y="1310" width="120" height="120" as="geometry" />
        </mxCell>
        <mxCell id="sd8wvMYhDi7HjZ1PcNP_-83" style="edgeStyle=orthogonalEdgeStyle;rounded=0;orthogonalLoop=1;jettySize=auto;html=1;entryX=0;entryY=0.5;entryDx=0;entryDy=0;" edge="1" parent="1" source="sd8wvMYhDi7HjZ1PcNP_-84" target="sd8wvMYhDi7HjZ1PcNP_-86">
          <mxGeometry relative="1" as="geometry" />
        </mxCell>
        <mxCell id="sd8wvMYhDi7HjZ1PcNP_-84" value="thon &amp;gt; 0" style="rhombus;whiteSpace=wrap;html=1;" vertex="1" parent="1">
          <mxGeometry x="500" y="1310" width="120" height="120" as="geometry" />
        </mxCell>
        <mxCell id="sd8wvMYhDi7HjZ1PcNP_-85" style="edgeStyle=orthogonalEdgeStyle;rounded=0;orthogonalLoop=1;jettySize=auto;html=1;entryX=0;entryY=0.5;entryDx=0;entryDy=0;" edge="1" parent="1" source="sd8wvMYhDi7HjZ1PcNP_-86" target="sd8wvMYhDi7HjZ1PcNP_-88">
          <mxGeometry relative="1" as="geometry" />
        </mxCell>
        <mxCell id="sd8wvMYhDi7HjZ1PcNP_-86" value="thon=thon-10" style="rounded=0;whiteSpace=wrap;html=1;" vertex="1" parent="1">
          <mxGeometry x="650" y="1340" width="120" height="60" as="geometry" />
        </mxCell>
        <mxCell id="sd8wvMYhDi7HjZ1PcNP_-87" style="edgeStyle=orthogonalEdgeStyle;rounded=0;orthogonalLoop=1;jettySize=auto;html=1;entryX=0;entryY=0.5;entryDx=0;entryDy=0;" edge="1" parent="1" source="sd8wvMYhDi7HjZ1PcNP_-88" target="sd8wvMYhDi7HjZ1PcNP_-90">
          <mxGeometry relative="1" as="geometry" />
        </mxCell>
        <mxCell id="sd8wvMYhDi7HjZ1PcNP_-88" value="sip&lt;span style=&quot;background-color: initial;&quot;&gt;-1&lt;/span&gt;" style="rounded=0;whiteSpace=wrap;html=1;" vertex="1" parent="1">
          <mxGeometry x="799" y="1340" width="120" height="60" as="geometry" />
        </mxCell>
        <mxCell id="sd8wvMYhDi7HjZ1PcNP_-89" style="edgeStyle=orthogonalEdgeStyle;rounded=0;orthogonalLoop=1;jettySize=auto;html=1;" edge="1" parent="1" source="sd8wvMYhDi7HjZ1PcNP_-90">
          <mxGeometry relative="1" as="geometry">
            <mxPoint x="400" y="1290" as="targetPoint" />
            <Array as="points">
              <mxPoint x="1000" y="1290" />
            </Array>
          </mxGeometry>
        </mxCell>
        <mxCell id="sd8wvMYhDi7HjZ1PcNP_-90" value="ทอนเงิน 10" style="shape=parallelogram;perimeter=parallelogramPerimeter;whiteSpace=wrap;html=1;fixedSize=1;" vertex="1" parent="1">
          <mxGeometry x="940" y="1340" width="120" height="60" as="geometry" />
        </mxCell>
        <mxCell id="sd8wvMYhDi7HjZ1PcNP_-91" style="edgeStyle=orthogonalEdgeStyle;rounded=0;orthogonalLoop=1;jettySize=auto;html=1;entryX=0;entryY=0.5;entryDx=0;entryDy=0;" edge="1" parent="1" source="sd8wvMYhDi7HjZ1PcNP_-93" target="sd8wvMYhDi7HjZ1PcNP_-95">
          <mxGeometry relative="1" as="geometry" />
        </mxCell>
        <mxCell id="sd8wvMYhDi7HjZ1PcNP_-92" style="edgeStyle=orthogonalEdgeStyle;rounded=0;orthogonalLoop=1;jettySize=auto;html=1;entryX=0.5;entryY=0;entryDx=0;entryDy=0;" edge="1" parent="1" source="sd8wvMYhDi7HjZ1PcNP_-93" target="sd8wvMYhDi7HjZ1PcNP_-102">
          <mxGeometry relative="1" as="geometry" />
        </mxCell>
        <mxCell id="sd8wvMYhDi7HjZ1PcNP_-93" value="thon &amp;gt;=5" style="rhombus;whiteSpace=wrap;html=1;" vertex="1" parent="1">
          <mxGeometry x="340" y="1480" width="120" height="120" as="geometry" />
        </mxCell>
        <mxCell id="sd8wvMYhDi7HjZ1PcNP_-94" style="edgeStyle=orthogonalEdgeStyle;rounded=0;orthogonalLoop=1;jettySize=auto;html=1;entryX=0;entryY=0.5;entryDx=0;entryDy=0;" edge="1" parent="1" source="sd8wvMYhDi7HjZ1PcNP_-95" target="sd8wvMYhDi7HjZ1PcNP_-97">
          <mxGeometry relative="1" as="geometry" />
        </mxCell>
        <mxCell id="sd8wvMYhDi7HjZ1PcNP_-95" value="thon &amp;gt; 0" style="rhombus;whiteSpace=wrap;html=1;" vertex="1" parent="1">
          <mxGeometry x="500" y="1480" width="120" height="120" as="geometry" />
        </mxCell>
        <mxCell id="sd8wvMYhDi7HjZ1PcNP_-96" style="edgeStyle=orthogonalEdgeStyle;rounded=0;orthogonalLoop=1;jettySize=auto;html=1;entryX=0;entryY=0.5;entryDx=0;entryDy=0;" edge="1" parent="1" source="sd8wvMYhDi7HjZ1PcNP_-97" target="sd8wvMYhDi7HjZ1PcNP_-99">
          <mxGeometry relative="1" as="geometry" />
        </mxCell>
        <mxCell id="sd8wvMYhDi7HjZ1PcNP_-97" value="thon=thon-10" style="rounded=0;whiteSpace=wrap;html=1;" vertex="1" parent="1">
          <mxGeometry x="650" y="1510" width="120" height="60" as="geometry" />
        </mxCell>
        <mxCell id="sd8wvMYhDi7HjZ1PcNP_-98" style="edgeStyle=orthogonalEdgeStyle;rounded=0;orthogonalLoop=1;jettySize=auto;html=1;" edge="1" parent="1" source="sd8wvMYhDi7HjZ1PcNP_-99" target="sd8wvMYhDi7HjZ1PcNP_-101">
          <mxGeometry relative="1" as="geometry" />
        </mxCell>
        <mxCell id="sd8wvMYhDi7HjZ1PcNP_-99" value="ha-1" style="rounded=0;whiteSpace=wrap;html=1;" vertex="1" parent="1">
          <mxGeometry x="799" y="1510" width="120" height="60" as="geometry" />
        </mxCell>
        <mxCell id="sd8wvMYhDi7HjZ1PcNP_-100" style="edgeStyle=orthogonalEdgeStyle;rounded=0;orthogonalLoop=1;jettySize=auto;html=1;" edge="1" parent="1" source="sd8wvMYhDi7HjZ1PcNP_-101">
          <mxGeometry relative="1" as="geometry">
            <mxPoint x="400" y="1450" as="targetPoint" />
            <Array as="points">
              <mxPoint x="1000" y="1450" />
            </Array>
          </mxGeometry>
        </mxCell>
        <mxCell id="sd8wvMYhDi7HjZ1PcNP_-101" value="ทอนเงิน 5" style="shape=parallelogram;perimeter=parallelogramPerimeter;whiteSpace=wrap;html=1;fixedSize=1;" vertex="1" parent="1">
          <mxGeometry x="940" y="1510" width="120" height="60" as="geometry" />
        </mxCell>
        <mxCell id="sd8wvMYhDi7HjZ1PcNP_-102" value="&amp;nbsp;stop money in box" style="rounded=0;whiteSpace=wrap;html=1;" vertex="1" parent="1">
          <mxGeometry x="340" y="1650" width="120" height="60" as="geometry" />
        </mxCell>
        <mxCell id="sd8wvMYhDi7HjZ1PcNP_-103" value="N" style="text;html=1;align=center;verticalAlign=middle;whiteSpace=wrap;rounded=0;" vertex="1" parent="1">
          <mxGeometry x="430" y="1099" width="20" height="30" as="geometry" />
        </mxCell>
        <mxCell id="sd8wvMYhDi7HjZ1PcNP_-104" value="Y" style="text;html=1;align=center;verticalAlign=middle;whiteSpace=wrap;rounded=0;" vertex="1" parent="1">
          <mxGeometry x="450" y="1030" width="60" height="30" as="geometry" />
        </mxCell>
        <mxCell id="sd8wvMYhDi7HjZ1PcNP_-105" value="Y" style="text;html=1;align=center;verticalAlign=middle;whiteSpace=wrap;rounded=0;" vertex="1" parent="1">
          <mxGeometry x="590" y="1030" width="60" height="30" as="geometry" />
        </mxCell>
        <mxCell id="sd8wvMYhDi7HjZ1PcNP_-106" value="N" style="text;html=1;align=center;verticalAlign=middle;whiteSpace=wrap;rounded=0;" vertex="1" parent="1">
          <mxGeometry x="404" y="1290" width="20" height="30" as="geometry" />
        </mxCell>
        <mxCell id="sd8wvMYhDi7HjZ1PcNP_-107" value="Y" style="text;html=1;align=center;verticalAlign=middle;whiteSpace=wrap;rounded=0;" vertex="1" parent="1">
          <mxGeometry x="430" y="1190" width="60" height="30" as="geometry" />
        </mxCell>
        <mxCell id="sd8wvMYhDi7HjZ1PcNP_-108" value="Y" style="text;html=1;align=center;verticalAlign=middle;whiteSpace=wrap;rounded=0;" vertex="1" parent="1">
          <mxGeometry x="582" y="1184" width="60" height="30" as="geometry" />
        </mxCell>
        <mxCell id="sd8wvMYhDi7HjZ1PcNP_-109" value="N" style="text;html=1;align=center;verticalAlign=middle;whiteSpace=wrap;rounded=0;" vertex="1" parent="1">
          <mxGeometry x="410" y="1410" width="20" height="30" as="geometry" />
        </mxCell>
        <mxCell id="sd8wvMYhDi7HjZ1PcNP_-110" value="Y" style="text;html=1;align=center;verticalAlign=middle;whiteSpace=wrap;rounded=0;" vertex="1" parent="1">
          <mxGeometry x="430" y="1340" width="60" height="30" as="geometry" />
        </mxCell>
        <mxCell id="sd8wvMYhDi7HjZ1PcNP_-111" value="Y" style="text;html=1;align=center;verticalAlign=middle;whiteSpace=wrap;rounded=0;" vertex="1" parent="1">
          <mxGeometry x="590" y="1330" width="60" height="30" as="geometry" />
        </mxCell>
        <mxCell id="sd8wvMYhDi7HjZ1PcNP_-112" value="Y" style="text;html=1;align=center;verticalAlign=middle;whiteSpace=wrap;rounded=0;" vertex="1" parent="1">
          <mxGeometry x="430" y="1510" width="60" height="30" as="geometry" />
        </mxCell>
        <mxCell id="sd8wvMYhDi7HjZ1PcNP_-113" value="Y" style="text;html=1;align=center;verticalAlign=middle;whiteSpace=wrap;rounded=0;" vertex="1" parent="1">
          <mxGeometry x="590" y="1510" width="60" height="30" as="geometry" />
        </mxCell>
        <mxCell id="sd8wvMYhDi7HjZ1PcNP_-114" value="N" style="text;html=1;align=center;verticalAlign=middle;whiteSpace=wrap;rounded=0;" vertex="1" parent="1">
          <mxGeometry x="410" y="1590" width="20" height="30" as="geometry" />
        </mxCell>
      </root>
    </mxGraphModel>
  </diagram>
</mxfile>
